<svg id="Layer_1" data-name="Layer 1" xmlns="http://www.w3.org/2000/svg" viewBox="0 0 1400 272"><path d="M22,221.5V47.7H60.6V179.1H103l-5.6,42.4Z"/><path d="M110.2,222,141.6,58.5l42.6-10.7L218.3,222H177.5l-6-34.1H141.2L136.5,222Zm57-58.4-11-62.1-10.5,62.1Z"/><path d="M220.5,143l.4-92.8h38.6v95.1c0,10.5,1.7,19.3,5,26.4a33.77,33.77,0,0,0,16.3,16.2V50.2h38.6V222H280.8V200.9l-26.2,24.3L244,214.6c-7.3-7.4-12.7-14.5-16-21.2a64.93,64.93,0,0,1-6.3-20.8C221,165.4,220.5,155.5,220.5,143Z"/><path d="M373.3,151.1V222H335.2V83.6l38.6-35,7.4,2c7.7,2.3,13.9,4.4,18.8,6.3a56.71,56.71,0,0,1,13.5,7.7,36.16,36.16,0,0,1,10.1,12.1c3.9,7.3,5.9,16,5.9,26.2v19.8l-22,15.2a47.83,47.83,0,0,1,13.8,11.4,48.6,48.6,0,0,1,8.6,15.6,57.49,57.49,0,0,1,2.9,18v39.5H394.2V185.2a45.32,45.32,0,0,0-5.1-21.6A24.62,24.62,0,0,0,373.3,151.1Zm0-16.8,19.7-13,.2-5.8v-7a38.17,38.17,0,0,0-5.3-19.3,25.67,25.67,0,0,0-14.6-12v57.1Z"/><path d="M444.4,222,475.8,58.5l42.6-10.7L552.5,222H511.7l-6-34.1H475.4L470.7,222Zm57-58.4-11-62.1-10.5,62.1Z"/><path d="M609.2,221.5V50.2h39.5V221.6H609.2Z"/><path d="M666.9,98.8c0-7.3,1.8-13.6,5.4-18.8a89.16,89.16,0,0,1,15.2-16.2l20.6-17.5a87.25,87.25,0,0,1,21.4,8,88.49,88.49,0,0,1,18.3,13.3l-19.1,32.5a64.26,64.26,0,0,0-16.2-19c-6.3-4.9-12.8-7.5-19.5-7.7a57.7,57.7,0,0,0,11.2,23.2,203.54,203.54,0,0,0,21.9,22.2c9.2,8.1,16.2,15,20.9,20.7a39.29,39.29,0,0,1,8.8,19.8c1.3,11.2,2,17.8,2,19.8V182l-37.2,42.2a97.48,97.48,0,0,1-22.5-4.7,85.85,85.85,0,0,1-19.2-9.5,117.27,117.27,0,0,1-17.8-14.8L686,160.9a163.4,163.4,0,0,0,11.7,16,53.29,53.29,0,0,0,12.8,10.9,48.1,48.1,0,0,0,17.1,6.1c-1.3-9.3-4.5-17.1-9.6-23.2s-12.3-13.5-21.9-21.9-16.8-16.1-21.6-23.2C670.1,118.6,667.4,109.7,666.9,98.8Z"/><path d="M760.3,222,791.7,58.5l42.6-10.7L868.4,222H827.6l-6-34.1H791.3L786.6,222Zm56.9-58.4-11-62.1-10.5,62.1Z"/><path d="M880,222V81.3l36.4-32.7,12.1.2a59.33,59.33,0,0,1,23.6,5.6,41,41,0,0,1,17.2,15c4.3,6.6,6.7,14.5,7,23.8l.4,14.8L954,126.4c8.9,4.6,15.4,10.9,19.4,19a61.08,61.08,0,0,1,6,27.5v20.6L945.3,222Zm39.3-83.2-.4,42.4h22.5v-7.4C941.3,156.8,933.9,145.1,919.3,138.8Zm0-65.3v46.9l21.1-14.6V97.5a21.77,21.77,0,0,0-6.1-15.4A28.47,28.47,0,0,0,919.3,73.5Z"/><path d="M1030.3,49.2h44.9L1072.1,83h-40.9v37.3h42.2l-3.2,25.8h-39.5V182h44.9l-3.6,40H991.4L991,83.5Z"/><path d="M1088.8,221.5V47.7h38.6V179.1h42.4l-5.6,42.4Z"/><path d="M1182.1,221.5V47.7h38.6V179.1h42.4l-5.6,42.4Z"/><path d="M1269.9,222l31.4-163.5,42.6-10.7L1378,222h-40.8l-6-34.1h-30.3l-4.7,34.1Zm57-58.4-11-62.1-10.5,62.1Z"/></svg>