<?xml version="1.0" standalone="no"?>
<!DOCTYPE svg PUBLIC "-//W3C//DTD SVG 20010904//EN"
 "http://www.w3.org/TR/2001/REC-SVG-20010904/DTD/svg10.dtd">
<svg version="1.0" xmlns="http://www.w3.org/2000/svg"
 viewBox="0 0 1400.000000 272.000000"
 preserveAspectRatio="xMidYMid meet">
<metadata>
Created by potrace 1.16, written by Peter Selinger 2001-2019
</metadata>
<g transform="translate(0.000000,272.000000) scale(0.100000,-0.100000)"
fill="#000000" stroke="none">
<path d="M6936 2134 c-156 -134 -225 -214 -251 -295 -35 -103 -1 -285 71 -392
30 -43 101 -116 310 -318 130 -125 188 -213 200 -302 l7 -45 -44 9 c-55 13
-146 61 -198 106 -22 18 -68 71 -102 116 -34 45 -65 83 -69 85 -4 2 -63 -73
-129 -165 l-122 -167 48 -43 c77 -69 203 -149 283 -182 71 -28 206 -61 249
-61 26 0 391 414 391 444 0 11 -7 75 -15 140 -21 174 -44 216 -204 370 -315
304 -372 371 -412 490 l-18 51 30 3 c70 8 230 -108 299 -216 l28 -42 75 127
c41 71 84 144 96 164 l22 37 -68 51 c-80 60 -183 114 -270 140 l-62 19 -145
-124z"/>
<path d="M222 1373 l3 -868 375 0 374 0 22 160 c11 88 24 184 28 213 l7 52
-211 0 -210 0 0 655 0 655 -195 0 -195 0 2 -867z"/>
<path d="M1615 2186 l-200 -52 -42 -220 c-23 -120 -92 -480 -153 -799 -61
-319 -113 -588 -116 -597 -5 -17 6 -18 129 -18 l134 0 12 98 c7 53 17 130 23
170 l10 72 152 0 152 0 29 -170 29 -170 203 0 c156 0 203 3 203 13 -1 6 -76
397 -169 867 -126 646 -171 855 -182 857 -8 1 -104 -22 -214 -51z m55 -1093
c0 -10 -27 -13 -105 -13 -77 0 -105 3 -105 13 0 13 86 524 97 572 4 22 21 -53
59 -265 29 -162 53 -301 54 -307z"/>
<path d="M4962 2187 c-141 -36 -203 -56 -206 -67 -3 -8 -73 -370 -156 -805
-83 -434 -153 -796 -155 -802 -3 -10 27 -13 129 -13 l133 0 23 170 23 170 152
0 152 0 29 -167 30 -168 202 -3 c111 -1 202 1 202 5 2 31 -337 1733 -345 1732
-5 -1 -101 -24 -213 -52z m-2 -794 c27 -156 50 -290 50 -298 0 -12 -18 -15
-105 -15 -58 0 -105 3 -105 8 0 4 22 138 50 297 27 160 50 295 51 300 2 22 10
-19 59 -292z"/>
<path d="M8116 2186 l-199 -52 -148 -769 c-81 -424 -152 -791 -157 -818 l-9
-47 132 0 132 0 23 170 23 170 152 0 152 0 29 -168 29 -167 203 -3 c188 -2
202 -1 201 15 0 10 -75 400 -167 868 -130 660 -171 850 -182 851 -8 1 -105
-22 -214 -50z m54 -1093 c0 -10 -27 -13 -105 -13 -77 0 -105 3 -105 13 0 8 85
510 101 597 1 6 108 -581 109 -597z"/>
<path d="M10890 1370 l0 -870 374 0 374 0 6 28 c3 15 15 99 26 187 11 88 23
172 26 188 l6 27 -216 0 -216 0 0 655 0 655 -190 0 -190 0 0 -870z"/>
<path d="M11822 1373 l3 -868 375 0 375 0 27 195 c14 107 27 203 27 213 1 16
-15 17 -209 17 l-210 0 0 655 0 655 -195 0 -195 0 2 -867z"/>
<path d="M13220 2188 c-107 -27 -198 -52 -202 -56 -4 -4 -75 -360 -157 -792
-83 -432 -154 -797 -157 -813 l-6 -27 131 0 c152 0 132 -21 156 165 9 66 18
132 21 147 l6 28 149 0 c146 0 149 0 154 -22 7 -29 55 -300 55 -310 0 -5 93
-8 206 -8 l206 0 -5 23 c-3 12 -78 393 -167 847 -185 948 -169 870 -184 869
-6 0 -99 -23 -206 -51z m-4 -806 c29 -158 50 -290 47 -294 -2 -5 -49 -8 -104
-8 -88 0 -99 2 -99 18 -1 32 95 581 100 575 3 -2 28 -134 56 -291z"/>
<path d="M3542 2058 l-191 -173 0 -692 -1 -693 190 0 190 0 2 355 3 354 40
-18 c56 -25 109 -84 136 -150 21 -52 23 -73 27 -299 l4 -242 195 0 195 0 -4
247 c-4 221 -7 255 -26 314 -30 91 -93 182 -164 237 l-58 46 51 35 c29 20 79
56 112 80 l60 43 -5 147 c-5 122 -10 159 -32 225 -44 130 -100 195 -222 255
-59 29 -271 101 -297 101 -8 0 -100 -78 -205 -172z m259 -148 c88 -59 129
-157 129 -307 l0 -98 -88 -56 c-48 -31 -93 -60 -99 -63 -10 -6 -13 52 -13 273
0 227 3 281 13 281 8 0 33 -13 58 -30z"/>
<path d="M8978 2068 l-178 -161 0 -703 0 -704 326 0 326 0 169 141 169 141 0
155 c0 172 -12 238 -60 332 -29 58 -101 135 -157 168 l-33 19 115 93 115 93
-6 112 c-4 66 -14 135 -26 171 -63 197 -238 305 -488 304 l-95 0 -177 -161z
m299 -118 c31 -18 65 -49 85 -77 31 -45 33 -53 33 -132 l0 -84 -98 -68 c-54
-38 -100 -69 -102 -69 -3 0 -5 104 -5 230 0 263 -5 252 87 200z m-26 -649 c62
-40 93 -77 126 -146 23 -49 28 -77 31 -152 l4 -93 -111 0 -111 0 0 210 c0 116
4 210 8 210 4 0 28 -13 53 -29z"/>
<path d="M10108 2058 l-198 -172 0 -693 0 -693 405 0 c223 0 405 3 405 8 1 4
9 94 18 200 l18 192 -223 0 -223 0 0 180 0 180 195 0 c194 0 195 0 199 23 8
34 26 187 26 214 l0 23 -210 0 -210 0 0 185 0 185 204 0 205 0 5 43 c8 56 26
256 26 279 0 17 -14 18 -222 18 l-223 0 -197 -172z"/>
<path d="M2208 1768 c-3 -722 1 -808 46 -920 41 -101 88 -168 191 -276 l101
-105 129 121 130 120 3 -104 3 -104 189 0 190 0 0 860 0 860 -190 0 -190 0 0
-691 0 -690 -31 18 c-46 27 -107 92 -129 138 -49 101 -51 131 -53 692 l-2 528
-192 3 -193 2 -2 -452z"/>
<path d="M6092 1363 l3 -858 195 0 195 0 3 858 2 857 -200 0 -200 0 2 -857z"/>
</g>
</svg>
