<svg id="Layer_1" data-name="Layer 1" xmlns="http://www.w3.org/2000/svg" viewBox="0 0 1356 178.9"><path d="M0,175.2V1.4H38.6V132.8H81l-5.6,42.4Z"/><path d="M88.2,175.7,119.6,12.2,162.2,1.5l34.1,174.2H155.5l-6-34.1H119.2l-4.7,34.1Zm57-58.4-11-62.1-10.5,62.1Z"/><path d="M198.5,96.7l.4-92.8h38.6V99c0,10.5,1.7,19.3,5,26.4a33.77,33.77,0,0,0,16.3,16.2V3.9h38.6V175.7H258.8V154.6l-26.2,24.3L222,168.3c-7.3-7.4-12.7-14.5-16-21.2a64.93,64.93,0,0,1-6.3-20.8C199,119.1,198.5,109.2,198.5,96.7Z"/><path d="M351.3,104.8v70.9H313.2V37.3l38.6-35,7.4,2c7.7,2.3,13.9,4.4,18.8,6.3a56.71,56.71,0,0,1,13.5,7.7,36.16,36.16,0,0,1,10.1,12.1c3.9,7.3,5.9,16,5.9,26.2V76.4l-22,15.2A47.83,47.83,0,0,1,399.3,103a48.6,48.6,0,0,1,8.6,15.6,57.49,57.49,0,0,1,2.9,18v39.5H372.2V138.9a45.32,45.32,0,0,0-5.1-21.6A24.62,24.62,0,0,0,351.3,104.8Zm0-16.8L371,75l.2-5.8v-7a38.17,38.17,0,0,0-5.3-19.3,25.67,25.67,0,0,0-14.6-12V88Z"/><path d="M422.4,175.7,453.8,12.2,496.4,1.5l34.1,174.2H489.7l-6-34.1H453.4l-4.7,34.1Zm57-58.4-11-62.1-10.5,62.1Z"/><path d="M587.2,175.2V3.9h39.5V175.3H587.2Z"/><path d="M644.9,52.5c0-7.3,1.8-13.6,5.4-18.8a89.16,89.16,0,0,1,15.2-16.2L686.1,0a87.25,87.25,0,0,1,21.4,8,88.49,88.49,0,0,1,18.3,13.3L706.7,53.8a64.26,64.26,0,0,0-16.2-19c-6.3-4.9-12.8-7.5-19.5-7.7a57.7,57.7,0,0,0,11.2,23.2,203.54,203.54,0,0,0,21.9,22.2c9.2,8.1,16.2,15,20.9,20.7a39.29,39.29,0,0,1,8.8,19.8c1.3,11.2,2,17.8,2,19.8v2.9l-37.2,42.2a97.48,97.48,0,0,1-22.5-4.7,85.85,85.85,0,0,1-19.2-9.5,117.27,117.27,0,0,1-17.8-14.8L664,114.6a163.4,163.4,0,0,0,11.7,16,53.29,53.29,0,0,0,12.8,10.9,48.1,48.1,0,0,0,17.1,6.1c-1.3-9.3-4.5-17.1-9.6-23.2s-12.3-13.5-21.9-21.9-16.8-16.1-21.6-23.2C648.1,72.3,645.4,63.4,644.9,52.5Z"/><path d="M738.3,175.7,769.7,12.2,812.3,1.5l34.1,174.2H805.6l-6-34.1H769.3l-4.7,34.1Zm56.9-58.4-11-62.1-10.5,62.1Z"/><path d="M858,175.7V35L894.4,2.3l12.1.2a59.33,59.33,0,0,1,23.6,5.6,41,41,0,0,1,17.2,15c4.3,6.6,6.7,14.5,7,23.8l.4,14.8L932,80.1c8.9,4.6,15.4,10.9,19.4,19a61.08,61.08,0,0,1,6,27.5v20.6l-34.1,28.5Zm39.3-83.2-.4,42.4h22.5v-7.4C919.3,110.5,911.9,98.8,897.3,92.5Zm0-65.3V74.1l21.1-14.6V51.2a21.77,21.77,0,0,0-6.1-15.4A28.47,28.47,0,0,0,897.3,27.2Z"/><path d="M1008.3,2.9h44.9l-3.1,33.8h-40.9V74h42.2l-3.2,25.8h-39.5v35.9h44.9l-3.6,40H969.4L969,37.2Z"/><path d="M1066.8,175.2V1.4h38.6V132.8h42.4l-5.6,42.4Z"/><path d="M1160.1,175.2V1.4h38.6V132.8h42.4l-5.6,42.4Z"/><path d="M1247.9,175.7l31.4-163.5,42.6-10.7L1356,175.7h-40.8l-6-34.1h-30.3l-4.7,34.1Zm57-58.4-11-62.1-10.5,62.1Z"/></svg>